<svg xmlns="http://www.w3.org/2000/svg" xmlns:xlink="http://www.w3.org/1999/xlink" width="78.574" height="80.382" viewBox="0 0 78.574 80.382">
  <defs>
    <clipPath id="clip-path">
      <rect id="Rectangle_5741" data-name="Rectangle 5741" width="78.574" height="80.382" fill="none"/>
    </clipPath>
  </defs>
  <g id="Group_10087" data-name="Group 10087" transform="translate(-1285.613 -2890.056)">
    <path id="Path_53523" data-name="Path 53523" d="M13852.9,133.013h0c-.02,0-10.079-.259-15.617,7.721s-5.421,13.958-5.421,13.958.367,9.549,6.313,14.409a14.985,14.985,0,0,1,5.488,11.746h18.27l3.889-9.753s8.631-7.339,8.042-15.468-.025-8.537-5.936-16.066a16.592,16.592,0,0,0-14.133-6.548" transform="translate(-12528 2774)" fill="#1799d8"/>
    <path id="Path_53524" data-name="Path 53524" d="M13843.312,136v15.29l9.938,16.487,9.665-16.487V136l-9.665-3.027Z" transform="translate(-12528 2774)" fill="#fff"/>
    <g id="Group_10080" data-name="Group 10080" transform="translate(1285.613 2890.056)">
      <g id="Group_10080-2" data-name="Group 10080" clip-path="url(#clip-path)">
        <path id="Path_53517" data-name="Path 53517" d="M78.573,34.671c.013-1.361-.256-1.9-1.793-2.222-1.611-.336-3.488-.713-5.382-.928a.962.962,0,0,1-1.022-.869A28.388,28.388,0,0,0,67.094,22.9c-.122-.193-.146-.254.044-.516.7-.965,1.388-1.959,2.053-2.921.41-.594.82-1.187,1.235-1.777,1.04-1.477,1-1.861-.288-3.161-1.845-1.855-3.871-3.881-6.192-6.193-.628-.625-1.007-1-1.576-1a3,3,0,0,0-1.578.758l-.622.43c-1.224.845-2.49,1.718-3.7,2.632a1.015,1.015,0,0,1-.613.272,1.238,1.238,0,0,1-.6-.217A29.947,29.947,0,0,0,47.476,8c-.327-.088-.329-.1-.375-.371-.344-2.046-.751-4.12-1.139-6.069C45.708.278,45.391.019,44.083.012,42.473,0,40.857,0,39.279,0c-1.63,0-3.265,0-4.862.012C33.155.02,32.911.3,32.608,1.424c-.117.431-.2.861-.266,1.223q-.094.516-.188,1.031c-.241,1.312-.489,2.668-.7,4.01-.037.229-.037.229-.271.29a29.778,29.778,0,0,0-7.926,3.255,1.054,1.054,0,0,1-.522.183,1.229,1.229,0,0,1-.685-.313c-1.445-1.065-2.864-2.051-4.569-3.229A2.328,2.328,0,0,0,16.2,7.314a1.9,1.9,0,0,0-1.3.739c-2.241,2.219-4.541,4.519-6.835,6.835-.911.92-.943,1.33-.189,2.434.975,1.428,2.03,2.957,3.14,4.453.6.8.632,1.094.191,1.552a2.4,2.4,0,0,0-.44.723c-.032.071-.063.141-.1.209a30.713,30.713,0,0,0-2.463,6.269c-.2.753-.391.941-1.043,1-1.3.127-2.6.379-3.85.623-.46.089-.919.178-1.379.262C.39,32.7.012,33.14.007,34.673,0,37.82,0,40.919.007,43.885.013,45.442.432,45.749,1.874,46l1.352.234c1.353.235,2.752.478,4.133.7.545.088.69.286.767.622a31.3,31.3,0,0,0,3.438,8.252l-.918,1.329c-.9,1.3-1.822,2.635-2.72,3.96-.8,1.174-.765,1.529.225,2.527,2.005,2.023,4.17,4.19,6.619,6.622A2.163,2.163,0,0,0,16.2,71.1a2.567,2.567,0,0,0,1.382-.617c1.627-1.112,3.268-2.259,4.856-3.368l.6-.416a2.686,2.686,0,0,0,.709-.645,1.285,1.285,0,0,0-.073-1.721,1.453,1.453,0,0,0-1.014-.5,1.257,1.257,0,0,0-.672.2c-.272.17-.591.373-.906.59-1.259.869-2.518,1.74-3.807,2.633l-.918.635L15.164,66.7c-1.53-1.533-2.975-2.981-4.458-4.457a.478.478,0,0,1-.083-.1.66.66,0,0,1,.1-.176c.429-.607.855-1.228,1.268-1.829.648-.944,1.317-1.921,2.007-2.852a2.3,2.3,0,0,0,.078-2.857,29.3,29.3,0,0,1-3.235-7.562c-.082-.306-.141-.553-.193-.772-.322-1.354-.544-1.481-1.942-1.74-.241-.045-.541-.1-.9-.175-1.852-.388-3.367-.661-4.766-.86a.741.741,0,0,1-.236-.061,1.053,1.053,0,0,1-.026-.317c.022-2.386.018-4.746,0-7.555a1.29,1.29,0,0,1,.014-.239.856.856,0,0,1,.183-.041c1.574-.218,3.159-.507,4.691-.787l.812-.148A2.354,2.354,0,0,0,10.7,32.2a24.688,24.688,0,0,1,3.349-8.1,2.365,2.365,0,0,0-.1-3.027c-.754-.971-1.468-2.012-2.158-3.018q-.39-.57-.784-1.137a5.821,5.821,0,0,1-.392-.6,5.619,5.619,0,0,1,.462-.5c.748-.759,1.517-1.525,2.26-2.265l.937-.936,1.684-1.683.382-.382,1.2.825c1.319.906,2.564,1.763,3.8,2.661a2.236,2.236,0,0,0,1.335.5,2.28,2.28,0,0,0,1.241-.414A28.07,28.07,0,0,1,29.065,11.6a22.706,22.706,0,0,1,3.366-.993,1.948,1.948,0,0,0,1.711-1.622c.172-1.122.367-2.263.557-3.366.129-.752.258-1.5.381-2.258l.006-.038c.03-.184.063-.387.093-.5.13-.014.369-.016.539-.017q1.737-.009,3.474-.009Q41,2.8,42.806,2.8a4.776,4.776,0,0,1,.55.023,4.927,4.927,0,0,1,.118.542c.085.471.175.941.265,1.411.235,1.222.477,2.486.614,3.728a2.2,2.2,0,0,0,1.923,2.141,25.88,25.88,0,0,1,8.253,3.406,2.766,2.766,0,0,0,1.422.473,2.109,2.109,0,0,0,1.441-.626,4.535,4.535,0,0,1,.548-.4c.082-.054.164-.108.245-.164l3.287-2.263.765-.526,1.295,1.3c1.434,1.436,2.788,2.792,4.161,4.184.065.066.169.171.236.248-.058.1-.163.253-.245.373q-.322.473-.643.947c-.812,1.2-1.651,2.435-2.527,3.606a2.156,2.156,0,0,0-.1,2.722A24.44,24.44,0,0,1,67.8,32.013,2.54,2.54,0,0,0,70.182,34.2c1.749.289,3.512.607,5.168.907.134.024.3.055.41.082.009.114.01.3.011.456.007,1.189.005,2.4,0,3.57v1.408q0,.388,0,.775c0,.59-.006,1.2.006,1.8,0,.032,0,.057,0,.077l-.031,0a4.18,4.18,0,0,0-.7.146c-.133.037-.26.071-.378.093q-.62.113-1.24.229c-1.234.23-2.509.468-3.765.646a1.914,1.914,0,0,0-1.753,1.684,27.12,27.12,0,0,1-3.467,8.394,2.223,2.223,0,0,0,.13,2.832c.6.806,1.18,1.656,1.741,2.477.469.686.953,1.4,1.451,2.083.2.278.184.3-.027.5-1.8,1.774-3.637,3.608-5.449,5.452a.76.76,0,0,1-.086.077,1.121,1.121,0,0,1-.147-.1c-.918-.68-1.873-1.333-2.8-1.965l-.182-.125c-.805-.552-1.653-1.116-2.519-1.678a1.2,1.2,0,0,0-.661-.207,1.442,1.442,0,0,0-1.031.525,1.26,1.26,0,0,0-.006,1.755,3.632,3.632,0,0,0,.777.648l.158.108q1.79,1.258,3.585,2.51l1.6,1.12a2.449,2.449,0,0,0,1.356.611c.542,0,.946-.359,1.456-.866,2.088-2.074,4.218-4.2,6.512-6.515,1.118-1.127,1.149-1.463.248-2.775-.881-1.283-1.791-2.585-2.672-3.844l-.919-1.315a29.386,29.386,0,0,0,3.466-8.242c.081-.337.223-.524.781-.615,1.407-.227,2.832-.476,4.211-.717L76.7,46c1.613-.28,1.858-.727,1.864-2.121,0-1.236,0-2.471,0-3.707,0-1.8,0-3.666.013-5.5M55.7,56.812l.021-.021c.706.706,1.384,1.441,2.126,2.106a1.272,1.272,0,0,0,1.71.038,1.333,1.333,0,0,0,.066-1.806,3.427,3.427,0,0,0-.331-.373c-1.2-1.205-2.051-2.059-3.262-3.254A21.732,21.732,0,0,0,61.9,39.735c1.655,0,2.848.005,4.522-.006a2.631,2.631,0,0,0,.858-.125,1.235,1.235,0,0,0,0-2.311,3.23,3.23,0,0,0-.982-.131c-.832-.017-1.163-.006-1.994-.006v.029c-.806,0-1.614-.024-2.42-.005a22.249,22.249,0,0,0-.28-3.039,22.475,22.475,0,0,0-5.333-10.984c1.108-1.106,1.938-1.931,3.071-3.079a2.63,2.63,0,0,0,.518-.7,1.235,1.235,0,0,0-1.631-1.637,3.239,3.239,0,0,0-.787.6c-.6.576-.826.818-1.414,1.406l.021.021c-.526.526-1.068,1.037-1.586,1.57a22.525,22.525,0,0,0-13.791-5.774c0-.049,0-.1,0-.146,0-1.705.006-2.909-.005-4.614a2.639,2.639,0,0,0-.126-.858,1.235,1.235,0,0,0-2.311,0,3.237,3.237,0,0,0-.131.982c-.017.831-.006,1.162-.006,1.994h.029c0,.884-.028,1.769,0,2.651a22.719,22.719,0,0,0-14.077,5.938c-1.2-1.2-2.049-2.057-3.26-3.252a2.637,2.637,0,0,0-.7-.518,1.235,1.235,0,0,0-1.637,1.631,3.235,3.235,0,0,0,.6.787c.575.6.818.826,1.406,1.414l.021-.021c.595.595,1.172,1.207,1.782,1.784a22.694,22.694,0,0,0-5.622,13.829l-.182-.006c-.832-.017-1.162-.006-1.994-.006v.029c-1,0-2-.04-2.992.014a1.272,1.272,0,0,0-1.236,1.182A1.333,1.333,0,0,0,11.473,39.7a3.38,3.38,0,0,0,.5.03c1.705,0,2.909.006,4.614-.005l.094,0A21.905,21.905,0,0,0,22.45,53.36c-.084.073-.166.148-.245.224-.6.576-.826.818-1.414,1.406l.021.021c-.705.705-1.441,1.384-2.106,2.125a1.272,1.272,0,0,0-.038,1.71,1.333,1.333,0,0,0,1.806.066,3.42,3.42,0,0,0,.373-.33c1.207-1.2,2.061-2.053,3.259-3.267l.01-.011a21.087,21.087,0,0,1,4.71,13.814,21.25,21.25,0,0,0,.22,4.059,8.491,8.491,0,0,0,6.592,6.857,19.105,19.105,0,0,0,7.192.015,8.459,8.459,0,0,0,6.7-6.92,25.613,25.613,0,0,0,.224-3.757,28.909,28.909,0,0,1,.191-4.062,21.238,21.238,0,0,1,4.406-9.859c.538.559.786.792,1.355,1.361M41.056,23.783q0-2.38,0-4.76c0-.049,0-.1,0-.147a19.335,19.335,0,0,1,6.723,1.832c.005.328,0,.664,0,.989q0,.242,0,.484v3.085c0,2.7,0,5.487-.006,8.23,0,.085,0,.212,0,.317-.107,0-.24.006-.335.007-.917.008-1.822.012-2.692.012-.822,0-1.638,0-2.427-.011h-.207c-.192,0-.363,0-.515,0l-.313,0c-.1,0-.171,0-.224,0-.008-.144,0-.367,0-.586,0-.183.005-.393,0-.634-.008-2.939-.007-5.928-.005-8.819M46.733,36.7c-.38.749-.812,1.466-1.233,2.165-.216.359-.44.73-.653,1.1a8.654,8.654,0,0,0-.39.8A2.663,2.663,0,0,1,43.64,42a1.57,1.57,0,0,1-.823.175c-.236,0-.485-.022-.749-.046s-.566-.051-.855-.051H41.13c-.492.009-1.034.013-1.7.013l-1.024,0-1.028,0q-.679,0-1.359.008h-.036c-.407,0-.526-.085-.659-.323-.792-1.426-1.592-2.821-2.438-4.3l-.445-.776Zm-4.857,8.412-.708,1.226L39.573,49.1,37.29,45.111ZM38.115,18.826v.138q0,2.459,0,4.918v3.86c0,1.921,0,3.907.007,5.862a1.351,1.351,0,0,1-.013.221.771.771,0,0,1-.11.007h-.015c-.97-.011-2-.017-3.136-.017-1.229,0-2.443.007-3.363.012h0a.937.937,0,0,1-.1,0,.863.863,0,0,1,0-.089c.011-.258.008-.511.005-.757,0-.109,0-.218,0-.326V29.89q0-4.278,0-8.556c0-.089,0-.178.005-.268a5.432,5.432,0,0,0-.01-.643,18.6,18.6,0,0,1,6.733-1.6m7.666,55.292a4.863,4.863,0,0,1-3.135,2.628,13.586,13.586,0,0,1-6.693.011,4.919,4.919,0,0,1-3.014-2.343c-.527-.861-.373-1.183.617-1.216,1.252-.042,2.505-.015,3.758-.017h1.954q2.48,0,4.961,0a8.459,8.459,0,0,1,1.051.03c.643.082.792.336.5.905m.766-6.837c-.084,3.152.171,2.624-2.531,2.662-1.605.022-3.212,0-4.817,0v0c-2.007,0-4.015.016-6.022-.007-.946-.011-1.045-.115-1.12-1.018-.053-.649-.049-1.3-.057-1.955a.673.673,0,0,1,.729-.762c.351-.012.7-.021,1.053-.021q5.5,0,10.99,0c.251,0,.5-.01.752.008.914.063,1.048.158,1.023,1.094m6.744-15.562a24.041,24.041,0,0,0-5.838,10.062c-.322,1.16-.351,1.156-1.558,1.182l-.27,0H45.6q-.551.008-1.1,0H34.819c-.113,0-.243,0-.392,0H32.943c-1.276-.018-1.486.26-2-1.518a22.811,22.811,0,0,0-5.427-9.457,19.422,19.422,0,0,1-5.355-10.268A18.762,18.762,0,0,1,23.7,26.763,21.153,21.153,0,0,1,28.448,22.1q0,1.6,0,3.2c0,2.911,0,5.921-.017,8.88a4.638,4.638,0,0,0,.671,2.443q2.264,3.9,4.522,7.814,2.225,3.848,4.452,7.695c.294.508.77,1.182,1.5,1.182.746,0,1.251-.72,1.566-1.262q.6-1.025,1.185-2.053.423-.735.846-1.47l2.974-5.144q1.98-3.424,3.959-6.848a3.876,3.876,0,0,0,.63-1.995c-.015-3.863-.012-7.792-.009-11.59v-.489a19.323,19.323,0,0,1,7.637,12.158,18.925,18.925,0,0,1-5.072,17.1" transform="translate(0 -0.001)"/>
      </g>
    </g>
  </g>
</svg>
