<svg xmlns="http://www.w3.org/2000/svg" width="73.849" height="73.848" viewBox="0 0 73.849 73.848">
  <g id="Group_10086" data-name="Group 10086" transform="translate(-765 -2896.59)">
    <rect id="Rectangle_5747" data-name="Rectangle 5747" width="58" height="7" transform="translate(767 2898)" fill="#1799d8"/>
    <path id="Path_53521" data-name="Path 53521" d="M0,0H27.653V11.569S39.989,10.6,40,12s0,39,0,39H0Z" transform="translate(776 2912)" fill="#1799d8"/>
    <path id="Path_53522" data-name="Path 53522" d="M13344.747,154.208l-20.776,20.938-3,8.3,8.039-2.7,15.736-17.225Z" transform="translate(-12528 2774)" fill="#fff"/>
    <g id="Group_2358" data-name="Group 2358" transform="translate(765 2896.59)">
      <g id="Outline" transform="translate(0)">
        <path id="Path_46767" data-name="Path 46767" d="M5.42,5.414a1.493,1.493,0,0,0-.3.477,1.363,1.363,0,0,0,0,1.1,1.35,1.35,0,0,0,.3.477A1.453,1.453,0,1,0,7.474,5.414,1.515,1.515,0,0,0,5.42,5.414Z" transform="translate(-0.66 -0.654)"/>
        <path id="Path_46768" data-name="Path 46768" d="M8.9,5.114a1.35,1.35,0,0,0-.477.3,1.467,1.467,0,0,0,0,2.054,1.447,1.447,0,0,0,2.474-1.027,1.522,1.522,0,0,0-.42-1.027A1.471,1.471,0,0,0,8.9,5.114Z" transform="translate(0.68 -0.658)"/>
        <path id="Path_46769" data-name="Path 46769" d="M11.9,5.112a1.493,1.493,0,0,0-.477.3,1.467,1.467,0,0,0,0,2.054,1.671,1.671,0,0,0,.477.3,1.447,1.447,0,0,0,.55.116,1.432,1.432,0,0,0,1.447-1.447,1.522,1.522,0,0,0-.42-1.027A1.5,1.5,0,0,0,11.9,5.112Z" transform="translate(2.02 -0.656)"/>
        <rect id="Rectangle_1870" data-name="Rectangle 1870" width="21.072" height="2.461" transform="translate(14 21.469)"/>
        <rect id="Rectangle_1871" data-name="Rectangle 1871" width="21.072" height="4.922" transform="translate(14 27.568)"/>
        <rect id="Rectangle_1872" data-name="Rectangle 1872" width="25.534" height="4.922" transform="translate(14 34.463)"/>
        <rect id="Rectangle_1873" data-name="Rectangle 1873" width="19.689" height="2.461" transform="translate(14 42.301)"/>
        <rect id="Rectangle_1874" data-name="Rectangle 1874" width="12.306" height="4.922" transform="translate(14 48.286)"/>
        <rect id="Rectangle_1875" data-name="Rectangle 1875" width="12.306" height="2.461" transform="translate(14 56.713)"/>
        <path id="Path_46770" data-name="Path 46770" d="M71.135,16.77A4.677,4.677,0,0,0,67.8,18.151L63.54,22.414V5.692A3.692,3.692,0,0,0,59.848,2H5.692A3.692,3.692,0,0,0,2,5.692V72.156a3.692,3.692,0,0,0,3.692,3.692H59.848a3.692,3.692,0,0,0,3.692-3.692V35.741L74.467,24.814a4.711,4.711,0,0,0-3.332-8.045ZM4.462,5.692A1.231,1.231,0,0,1,5.692,4.462H59.848a1.231,1.231,0,0,1,1.231,1.231V9.385H4.462ZM61.078,72.156a1.231,1.231,0,0,1-1.231,1.231H5.692a1.231,1.231,0,0,1-1.231-1.231V11.846H61.078V24.876L53.694,32.26V28.568L40.664,15.539H11.846V69.694H53.694V45.588L61.078,38.2ZM31.694,54.26l-3.332,10,10-3.332L41.9,57.386l9.337-9.337V67.232H14.308V18H38.924V30.308H51.232v4.414l-16,16Zm3.537-.057,3.183,3.183-1.386,1.386-4.774,1.591,1.591-4.774Zm6.154-34.462,8.106,8.106H41.386Zm-1.231,35.9-3.183-3.183L66,23.433l3.183,3.183ZM72.727,23.074l-1.8,1.8-3.183-3.183,1.8-1.8a2.251,2.251,0,1,1,3.183,3.183Z" transform="translate(-2 -2)"/>
      </g>
    </g>
  </g>
</svg>
