<svg xmlns="http://www.w3.org/2000/svg" xmlns:xlink="http://www.w3.org/1999/xlink" width="73.849" height="73.848" viewBox="0 0 73.849 73.848">
  <defs>
    <clipPath id="clip-path">
      <path id="Path_461" data-name="Path 461" d="M0,25.129H73.849V-48.72H0Z" transform="translate(0 48.72)"/>
    </clipPath>
  </defs>
  <g id="Group_10085" data-name="Group 10085" transform="translate(-274 -2896.59)">
    <rect id="Rectangle_5746" data-name="Rectangle 5746" width="9.909" height="41" rx="2" transform="translate(331.5 2898) rotate(90)" fill="#1799d8"/>
    <rect id="Rectangle_5744" data-name="Rectangle 5744" width="56" height="37" transform="translate(283 2918)" fill="#1799d8"/>
    <rect id="Rectangle_5745" data-name="Rectangle 5745" width="40.355" height="41" rx="2" transform="translate(331.5 2907.909) rotate(90)" fill="#fff"/>
    <g id="Group_2357" data-name="Group 2357" transform="translate(274 2896.59)">
      <g id="Group_1077" data-name="Group 1077" transform="translate(0 0)" clip-path="url(#clip-path)">
        <path id="Path_460" data-name="Path 460" d="M38.155,12.82H35.693v2.462h2.462Zm34.463,2.462H71.387V-29.027a4.923,4.923,0,0,0-4.923-4.923H59.079V-43.8a4.923,4.923,0,0,0-4.923-4.923H19.693A4.923,4.923,0,0,0,14.77-43.8v9.846H7.385a4.923,4.923,0,0,0-4.923,4.923V15.282H1.231A1.232,1.232,0,0,0,0,16.513v3.692a4.923,4.923,0,0,0,4.923,4.923h64a4.923,4.923,0,0,0,4.923-4.923V16.513a1.232,1.232,0,0,0-1.231-1.231M17.231-43.8a2.461,2.461,0,0,1,2.462-2.462H54.156A2.461,2.461,0,0,1,56.617-43.8v4.923H17.231Zm0,7.385H56.617V-.718a2.461,2.461,0,0,1-2.462,2.462H19.693A2.461,2.461,0,0,1,17.231-.718ZM19.693,4.2H54.156A4.923,4.923,0,0,0,59.079-.718V-26.565H64V7.9H9.846V-26.565H14.77V-.718A4.923,4.923,0,0,0,19.693,4.2M4.923-29.027a2.461,2.461,0,0,1,2.462-2.462H14.77v2.462H8.616A1.232,1.232,0,0,0,7.385-27.8V9.128a1.232,1.232,0,0,0,1.231,1.231H65.233a1.232,1.232,0,0,0,1.231-1.231V-27.8a1.232,1.232,0,0,0-1.231-1.231H59.079v-2.462h7.385a2.461,2.461,0,0,1,2.462,2.462V15.282H48a1.231,1.231,0,0,0-.87.359l-2.1,2.1H28.818l-2.1-2.1a1.231,1.231,0,0,0-.87-.359H4.923ZM71.387,20.205a2.461,2.461,0,0,1-2.462,2.462h-64a2.461,2.461,0,0,1-2.462-2.462V17.744H25.338l2.1,2.1a1.232,1.232,0,0,0,.87.361H45.54a1.232,1.232,0,0,0,.87-.361l2.1-2.1H71.387ZM52.925-9.334h-32v2.462h32ZM50.463-4.411H20.924v2.462H50.463ZM28.309-11.8H52.925v-2.462H28.309ZM19.693-41.335h2.462V-43.8H19.693Zm4.923,0h2.462V-43.8H24.616Zm4.923,0H32V-43.8H29.539ZM25.847-14.257H23.385V-11.8h2.462Zm.493-10.092,4.923,3.692,1.476-1.969L29.13-25.335l3.609-2.707-1.476-1.969L26.34-26.318a1.229,1.229,0,0,0-.247,1.722,1.193,1.193,0,0,0,.247.247m16.246,3.692,4.923-3.692a1.229,1.229,0,0,0,.246-1.723,1.179,1.179,0,0,0-.246-.246l-4.923-3.692-1.476,1.969,3.609,2.707-3.609,2.709ZM40.53-31.031l-2.286-.914L33.32-19.638l2.286.914Z" transform="translate(0 48.72)"/>
      </g>
    </g>
  </g>
</svg>
