<svg xmlns="http://www.w3.org/2000/svg" width="150" height="39.499" viewBox="0 0 150 39.499">
  <g id="Group_449" data-name="Group 449" transform="translate(-70 -59.668)">
    <path id="Path_1" data-name="Path 1" d="M277.776,76.133a3.517,3.517,0,0,1-.783,2.482,3.29,3.29,0,0,1-4.391-.038,3.635,3.635,0,0,1-.783-2.558V68.209h-3.036v7.9a5.5,5.5,0,0,0,6,6.148,7.369,7.369,0,0,0,2.5-.382,4.7,4.7,0,0,0,1.909-1.165,5.339,5.339,0,0,0,1.222-1.948,7.886,7.886,0,0,0,.42-2.749V68.209h-3.036v7.924Zm-24.764-5.117h4.22V82.032h3.036V71.016h2.616l1.585-2.807H253.012Zm-5.136,4.2a4.878,4.878,0,0,0-1.394-.821,16.575,16.575,0,0,0-1.871-.63c-.592-.153-1.088-.305-1.47-.42a3.872,3.872,0,0,1-.916-.382,1.02,1.02,0,0,1-.458-.439,1.2,1.2,0,0,1-.134-.573v-.038a1.067,1.067,0,0,1,.439-.859,2.191,2.191,0,0,1,1.337-.344,4.684,4.684,0,0,1,1.776.363,11.041,11.041,0,0,1,1.89.974l1.508-2.272a8.3,8.3,0,0,0-2.348-1.3,8.7,8.7,0,0,0-2.788-.458,6.11,6.11,0,0,0-1.948.305,4.789,4.789,0,0,0-1.527.84,3.757,3.757,0,0,0-.993,1.317,4.061,4.061,0,0,0-.363,1.7v.038a4.053,4.053,0,0,0,.325,1.718,3.4,3.4,0,0,0,.916,1.165,5.918,5.918,0,0,0,1.451.783,16.86,16.86,0,0,0,1.909.573c.573.153,1.05.286,1.413.42a3.526,3.526,0,0,1,.859.4,1.109,1.109,0,0,1,.42.42,1.26,1.26,0,0,1,.115.516v.038a1.072,1.072,0,0,1-.516.955,2.658,2.658,0,0,1-1.47.344,5.366,5.366,0,0,1-2.177-.458,12.34,12.34,0,0,1-2.253-1.47L238.1,80.028a8.18,8.18,0,0,0,2.769,1.661,9.041,9.041,0,0,0,3.112.535,7.57,7.57,0,0,0,2.062-.286,4.819,4.819,0,0,0,1.585-.821,3.984,3.984,0,0,0,1.05-1.337,4.636,4.636,0,0,0,.382-1.833v-.038a3.679,3.679,0,0,0-.286-1.566A4.03,4.03,0,0,0,247.876,75.216Zm56.459,6.816h3.055V68.209h-3.055Zm-7.37-11.838a7.036,7.036,0,0,0-2.329-1.451,7.962,7.962,0,0,0-2.979-.516h-5.4V82.051h5.4a7.98,7.98,0,0,0,2.979-.535,6.79,6.79,0,0,0,2.329-1.47,6.271,6.271,0,0,0,1.508-2.2,7.03,7.03,0,0,0,.535-2.73v-.038a6.937,6.937,0,0,0-.535-2.711A6.375,6.375,0,0,0,296.964,70.195Zm-1.146,4.964a4.6,4.6,0,0,1-.305,1.68,3.674,3.674,0,0,1-.859,1.3,3.316,3.316,0,0,1-1.317.84,4.7,4.7,0,0,1-1.7.305h-2.348V70.958h2.348a4.7,4.7,0,0,1,1.7.305,3.748,3.748,0,0,1,1.317.859,4.364,4.364,0,0,1,.859,1.317,4.6,4.6,0,0,1,.305,1.68ZM341.7,76.343a2.917,2.917,0,0,0-.859-1.127,4.878,4.878,0,0,0-1.394-.821,16.574,16.574,0,0,0-1.871-.63c-.592-.153-1.088-.305-1.47-.42a3.873,3.873,0,0,1-.917-.382,1.02,1.02,0,0,1-.458-.439,1.2,1.2,0,0,1-.134-.573v-.038a1.067,1.067,0,0,1,.439-.859,2.19,2.19,0,0,1,1.337-.344,4.684,4.684,0,0,1,1.776.363,12.272,12.272,0,0,1,1.986,1.165l1.413-2.444a8.3,8.3,0,0,0-2.348-1.3,8.734,8.734,0,0,0-2.807-.458,6.11,6.11,0,0,0-1.948.305,4.788,4.788,0,0,0-1.527.84,3.757,3.757,0,0,0-.993,1.317,4.061,4.061,0,0,0-.363,1.7v.038a4.052,4.052,0,0,0,.325,1.718,3.4,3.4,0,0,0,.916,1.165,5.918,5.918,0,0,0,1.451.783,16.86,16.86,0,0,0,1.909.573c.573.153,1.05.286,1.413.42a3.526,3.526,0,0,1,.859.4,1.109,1.109,0,0,1,.42.42,1.26,1.26,0,0,1,.115.516v.038a1.072,1.072,0,0,1-.516.955,2.658,2.658,0,0,1-1.47.344,5.366,5.366,0,0,1-2.177-.458,13.086,13.086,0,0,1-2.272-1.375l-1.489,2.31a8.181,8.181,0,0,0,2.769,1.661,9.042,9.042,0,0,0,3.112.535,7.571,7.571,0,0,0,2.062-.286h0a4.819,4.819,0,0,0,1.585-.821,3.985,3.985,0,0,0,1.05-1.337,4.636,4.636,0,0,0,.382-1.833v-.057A4.013,4.013,0,0,0,341.7,76.343Zm-16.344-6.282a7.359,7.359,0,0,0-2.329-1.527,8.07,8.07,0,0,0-5.9,0,7.068,7.068,0,0,0-3.857,3.819,7.237,7.237,0,0,0-.554,2.769v.038a7.22,7.22,0,0,0,.535,2.769,6.643,6.643,0,0,0,1.527,2.253,7.358,7.358,0,0,0,2.329,1.527,8.07,8.07,0,0,0,5.9,0h0a7.068,7.068,0,0,0,3.857-3.819,7.237,7.237,0,0,0,.554-2.769v-.038a6.888,6.888,0,0,0-2.062-5.022Zm-1.126,5.1a4.423,4.423,0,0,1-.306,1.661,3.976,3.976,0,0,1-.859,1.375,4.042,4.042,0,0,1-1.317.936,4.267,4.267,0,0,1-1.68.344,4.36,4.36,0,0,1-1.7-.344,4.175,4.175,0,0,1-2.2-2.329,4.594,4.594,0,0,1-.305-1.68v-.038a4.424,4.424,0,0,1,.305-1.661,4.18,4.18,0,0,1,2.158-2.31,4.326,4.326,0,0,1,3.38,0,4.057,4.057,0,0,1,2.2,2.329,4.594,4.594,0,0,1,.305,1.68v.038Z" transform="translate(-122.005 4.758)"/>
    <path id="Path_2" data-name="Path 2" d="M33.356,10.182h0L28.525,18.2l-4.449-7.478H8.191L8.21,29.356H22.358V25.713H12.239V21.8H22.358l-2.31-3.643H12.239V14.381h9.375l4.85,7.631v7.344h4.105v-7.42l4.907-7.689a16.337,16.337,0,0,1,.936,5.5A16.66,16.66,0,1,1,31.084,7.535l1.68-2.627A20.045,20.045,0,1,0,35.112,7.4Z" transform="translate(70 59.668)"/>
  </g>
</svg>
