<svg xmlns="http://www.w3.org/2000/svg" width="73.849" height="66.831" viewBox="0 0 73.849 66.831">
  <g id="Group_10165" data-name="Group 10165" transform="translate(-934 -2715.193)">
    <rect id="Rectangle_5743" data-name="Rectangle 5743" width="62" height="38" rx="2" transform="translate(939.9 2721.1)" fill="#1799d8"/>
    <path id="Path_53520" data-name="Path 53520" d="M13847.481-18.585c.03-.481.542-8.456.542-8.456l15.322-21.526,2.376-.541,4.3,2.616.57,2.737-15.671,22.562Z" transform="translate(-12884 2774)" fill="#fff"/>
    <g id="Group_9999" data-name="Group 9999" transform="translate(934 2715.193)">
      <g id="Group_2204" data-name="Group 2204" transform="translate(0 0)">
        <g id="Group_2204-2" data-name="Group 2204" transform="translate(28.522 8.406)">
          <path id="Path_46773" data-name="Path 46773" d="M126.127,252.121l-2.183-1.517a4.252,4.252,0,0,0-5.911,1.065l-7.619,10.959c-.005.007-.008.016-.013.024l-7.171,10.323a1.188,1.188,0,0,0-.21.616l-.4,8.287a1.181,1.181,0,0,0,1.644,1.142l7.623-3.268a1.179,1.179,0,0,0,.5-.411l14.8-21.31A4.251,4.251,0,0,0,126.127,252.121Zm-21.06,27.985.208-4.271L109,278.421Zm6.055-3.082-5.282-3.672,6.512-9.376h0l4.766-6.855,5.282,3.672Zm14.131-20.338-1.508,2.168-5.282-3.672,1.508-2.168a1.888,1.888,0,0,1,2.623-.473l2.184,1.522A1.888,1.888,0,0,1,125.253,256.686Z" transform="translate(-102.614 -249.847)"/>
        </g>
        <g id="Path_46757" data-name="Path 46757" transform="translate(55.987 13.793)">
          <path id="Path_46774" data-name="Path 46774" d="M150.3,258.061h-4.623a1.18,1.18,0,0,0,0,2.361H150.3a1.18,1.18,0,1,0,0-2.361Z" transform="translate(-144.5 -258.061)"/>
        </g>
        <g id="Path_46758" data-name="Path 46758" transform="translate(10.877 13.793)">
          <path id="Path_46775" data-name="Path 46775" d="M102.489,258.061h-25.6a1.18,1.18,0,0,0,0,2.361h25.606a1.18,1.18,0,1,0,0-2.361Z" transform="translate(-75.704 -258.061)"/>
        </g>
        <g id="Path_46759" data-name="Path 46759" transform="translate(50.794 22.3)">
          <path id="Path_46776" data-name="Path 46776" d="M147.577,271.036H137.76a1.18,1.18,0,0,0,0,2.36h9.816a1.18,1.18,0,1,0,0-2.36Z" transform="translate(-136.58 -271.036)"/>
        </g>
        <g id="Path_46760" data-name="Path 46760" transform="translate(10.878 22.3)">
          <path id="Path_46777" data-name="Path 46777" d="M96.582,271.036h-19.7a1.18,1.18,0,1,0,0,2.36h19.7a1.18,1.18,0,1,0,0-2.36Z" transform="translate(-75.705 -271.036)"/>
        </g>
        <g id="Path_46761" data-name="Path 46761" transform="translate(44.892 30.807)">
          <path id="Path_46778" data-name="Path 46778" d="M144.478,284.01H128.759a1.18,1.18,0,0,0,0,2.36h15.718a1.18,1.18,0,1,0,0-2.36Z" transform="translate(-127.579 -284.01)"/>
        </g>
        <g id="Path_46762" data-name="Path 46762" transform="translate(10.878 30.807)">
          <path id="Path_46779" data-name="Path 46779" d="M91.383,284.01h-14.5a1.18,1.18,0,1,0,0,2.36h14.5a1.18,1.18,0,1,0,0-2.36Z" transform="translate(-75.705 -284.01)"/>
        </g>
        <g id="Path_46763" data-name="Path 46763" transform="translate(37.337 39.314)">
          <path id="Path_46780" data-name="Path 46780" d="M140.507,296.984h-23.27a1.18,1.18,0,1,0,0,2.36h23.27a1.18,1.18,0,0,0,0-2.36Z" transform="translate(-116.057 -296.984)"/>
        </g>
        <g id="Path_46764" data-name="Path 46764" transform="translate(10.879 39.314)">
          <path id="Path_46781" data-name="Path 46781" d="M90.6,296.984H76.886a1.18,1.18,0,1,0,0,2.36H90.6a1.18,1.18,0,0,0,0-2.36Z" transform="translate(-75.706 -296.984)"/>
        </g>
        <path id="Path_46782" data-name="Path 46782" d="M126.535,237.026H65.544a6.447,6.447,0,0,0-6.429,6.43v44.82a6.446,6.446,0,0,0,6.43,6.428H84.78l-2.343,5.482H77.2a1.836,1.836,0,1,0,0,3.671h37.682a1.836,1.836,0,0,0,0-3.671h-5.238L107.3,294.7h19.236a6.447,6.447,0,0,0,6.428-6.43V243.455A6.446,6.446,0,0,0,126.535,237.026Zm-22.344,59.748,1.457,3.41H86.431l1.457-3.41Zm-41.4-13.681V243.456a2.765,2.765,0,0,1,2.757-2.758h60.99a2.764,2.764,0,0,1,2.757,2.757v39.638Zm66.5,3.673v1.507a2.765,2.765,0,0,1-2.757,2.758H65.545a2.766,2.766,0,0,1-2.759-2.757v-1.508Z" transform="translate(-59.115 -237.026)"/>
        <g id="Path_46766" data-name="Path 46766" transform="translate(35.743 50.411)">
          <path id="Path_46783" data-name="Path 46783" d="M115.789,314.434a1.18,1.18,0,1,0-.328,1.637,1.22,1.22,0,0,0,.2-.165A1.188,1.188,0,0,0,115.789,314.434Z" transform="translate(-113.627 -313.908)"/>
        </g>
      </g>
    </g>
  </g>
</svg>
