<svg xmlns="http://www.w3.org/2000/svg" width="72.949" height="70.475" viewBox="0 0 72.949 70.475">
  <g id="Group_10084" data-name="Group 10084" transform="translate(-765.451 -2711.099)">
    <path id="Path_53519" data-name="Path 53519" d="M13313.7-44.254h-9.812v22.647l21.568,14.932h8.7l21.944-14.932V-44.254h-9.733l-3.043,8.652-5.283,4.446-8.025,2.031-8.753-2.031-5.588-6.858Z" transform="translate(-12528 2774)" fill="#1799d8"/>
    <g id="Group_1100" data-name="Group 1100" transform="translate(795.645 2723.329)">
      <path id="Path_479" data-name="Path 479" d="M3.895.91a1.977,1.977,0,0,0-.324-2.36A2.082,2.082,0,0,0,1.13-1.656a4.449,4.449,0,0,0-.747.623q-3.855,3.723-7.7,7.454a4.53,4.53,0,0,0-.753.841,1.956,1.956,0,0,0,.013,2.121c.368.621.989.8,2.075.8a2.367,2.367,0,0,0,1.2-.743Q-.7,5.48,3.383,1.531A2.954,2.954,0,0,0,3.895.91M2.162,6.421A1.857,1.857,0,0,0,.275,8.241a2,2,0,0,0,1.909,2.022A1.909,1.909,0,0,0,4.135,8.318a1.842,1.842,0,0,0-1.973-1.9M-6.468,1.8A1.865,1.865,0,0,0-4.49-.082,1.841,1.841,0,0,0-6.473-1.95,1.809,1.809,0,0,0-8.349.014,1.784,1.784,0,0,0-6.468,1.8" transform="translate(8.375 1.956)"/>
      <path id="Path_479_-_Outline" data-name="Path 479 - Outline" d="M2.269,10.714l-.107,0A2.462,2.462,0,0,1-.175,8.233,2.307,2.307,0,0,1,2.151,5.971h.068a2.38,2.38,0,0,1,1.71.681,2.319,2.319,0,0,1,.656,1.67A2.373,2.373,0,0,1,2.269,10.714ZM2.219,6.87H2.173A1.405,1.405,0,0,0,.725,8.248,1.556,1.556,0,0,0,2.2,9.813l.065,0a1.471,1.471,0,0,0,1.416-1.5A1.407,1.407,0,0,0,3.29,7.286,1.488,1.488,0,0,0,2.219,6.87Zm-8.25,3.76A2.506,2.506,0,0,1-8.443,9.613a2.414,2.414,0,0,1-.011-2.584,4.337,4.337,0,0,1,.741-.85l.084-.081c2.269-2.2,4.716-4.573,7.7-7.454l.012-.012A4.719,4.719,0,0,1,.9-2.04,2.534,2.534,0,0,1,2.22-2.406a2.441,2.441,0,0,1,1.659.627,2.415,2.415,0,0,1,.405,2.915,3.333,3.333,0,0,1-.587.718C2.337,3.174.952,4.513-.387,5.809S-3.109,8.442-4.468,9.761a2.823,2.823,0,0,1-1.51.87h-.054ZM2.22-1.506a1.636,1.636,0,0,0-.855.234A3.989,3.989,0,0,0,.707-.72L.7-.709C-2.287,2.171-4.733,4.54-7,6.744l-.086.083a3.624,3.624,0,0,0-.6.669,1.512,1.512,0,0,0,.016,1.658c.216.365.553.577,1.637.577h.05a2.364,2.364,0,0,0,.887-.616C-3.735,7.8-2.351,6.457-1.013,5.162S1.71,2.527,3.07,1.208A2.486,2.486,0,0,0,3.5.685a1.537,1.537,0,0,0-.242-1.807A1.534,1.534,0,0,0,2.22-1.506Zm-8.7,3.759A2.223,2.223,0,0,1-8.8.03,2.355,2.355,0,0,1-8.187-1.7a2.375,2.375,0,0,1,1.706-.7A2.289,2.289,0,0,1-4.04-.085a2.265,2.265,0,0,1-.692,1.677,2.512,2.512,0,0,1-1.733.661ZM-6.429-1.5h-.036a1.466,1.466,0,0,0-1.069.425A1.446,1.446,0,0,0-7.9,0,1.328,1.328,0,0,0-6.484,1.353h.013A1.618,1.618,0,0,0-5.352.941,1.357,1.357,0,0,0-4.94-.079,1.384,1.384,0,0,0-6.429-1.5Z" transform="translate(8.375 1.956)" fill="#fff"/>
    </g>
    <path id="Subtraction_38" data-name="Subtraction 38" d="M-12456.609,2845.377h-.021c-5.045-.026-10.29-.038-17.01-.038h-4.254l-4.254,0c-2.618,0-5.585.006-8.508.006h-33.192c-.143,0-.29,0-.432,0s-.274.006-.415.006c-.265,0-.461-.012-.6-.022a1.779,1.779,0,0,1-1.785-1.761c-.021-.255-.017-.534-.013-.758,0-.107,0-.216,0-.321v-39.515c0-.211,0-.379,0-.544.051-1.451.613-2,2.075-2.025.435-.007.884-.01,1.415-.01.315,0,.642,0,.965,0h.969c.417,0,.776,0,1.109,0h.031c.843-.012,1.351-.019,1.7-.364s.349-.865.358-1.726c.006-.714.006-1.44.006-2.142,0-.149,0-.3,0-.452v-.229c0-.231,0-.466,0-.7v-.185a6.483,6.483,0,0,1,.038-.871c.173-1.315.57-1.663,1.931-1.695l.131,0,.329-.008.329-.008c.806-.021,1.718-.044,2.612-.044.878,0,1.643.023,2.337.069.095.006.194.009.286.009a4.452,4.452,0,0,0,3.455-2.012c.133-.153.289-.332.446-.5a1.53,1.53,0,0,0,.157-1.531l0-.01c-.014-.042-.024-.083-.031-.11-.021-.077-.042-.155-.064-.232l0-.01-.059-.214-.052-.193-.009-.033c-.156-.58-.318-1.18-.449-1.77a1.564,1.564,0,0,1,1.3-2.144c.662-.2,1.386-.364,1.968-.5l.007,0c.194-.043.389-.089.557-.129a1.967,1.967,0,0,0,1.641-1.6,18.576,18.576,0,0,1,.6-2.071l.012-.036.011-.032c.012-.038.024-.075.037-.114l.05-.153c.387-1.189.865-1.427,1.512-1.427a3.873,3.873,0,0,1,.931.135c.759.187,1.5.373,2.2.588a3.061,3.061,0,0,0,.874.142,2.113,2.113,0,0,0,1.657-.808,17.459,17.459,0,0,1,1.707-1.651,2.27,2.27,0,0,1,1.387-.739,2.377,2.377,0,0,1,1.437.78c.728.652,1.327,1.234,1.833,1.78a1.9,1.9,0,0,0,1.424.657,2.415,2.415,0,0,0,.657-.1l.337-.091.187-.051c.707-.194,1.439-.394,2.168-.568a2.942,2.942,0,0,1,.711-.1c.487,0,1.037.144,1.424,1.214l.022.057a13.926,13.926,0,0,1,.686,2.311,2.237,2.237,0,0,0,.751,1.393,3.014,3.014,0,0,0,1.361.591l.255.053.052.011.009,0c.578.122,1.176.248,1.741.408,1.272.361,1.66.987,1.384,2.232-.178.794-.395,1.614-.645,2.437a1.961,1.961,0,0,0,.6,2.2,8.283,8.283,0,0,1,.877.862,2.984,2.984,0,0,0,2.459,1.044h.081c.7-.01,1.36-.016,2.028-.016.532,0,1.1,0,1.552.006h.261l.486,0c.395,0,.751.006,1.112.006h.008a9.428,9.428,0,0,1,1.247.066,1.27,1.27,0,0,1,1.142.978,6.317,6.317,0,0,1,.188,1.9l0,.569c0,1.177.006,2.325,0,3.443a1.39,1.39,0,0,0,.364,1.034,1.475,1.475,0,0,0,1.092.38h.006c.531,0,1.071,0,1.594,0,1.237,0,2.251,0,3.191.012,1.834.013,2.364.507,2.364,2.2,0,4.27,0,8.611,0,12.809,0,8.4,0,18.157.034,27.586a2.351,2.351,0,0,1-.619,1.72A2.527,2.527,0,0,1-12456.609,2845.377Zm-66.56-31.354c-.034,0-.069,0-.1,0l-.221.012-.122.182a2.225,2.225,0,0,0-.283,1.471l.006.105v.013c0,.076.009.148.009.218-.01,7.1-.013,14.833-.01,23.631v.44c-.006.957-.009,1.484.343,1.836.319.323.791.346,1.528.346h62.071l.208,0h.026c.076,0,.151,0,.225,0,.147-.006.3-.006.44-.006.087,0,.17,0,.242,0h.078a1.324,1.324,0,0,0,1.006-.371,1.432,1.432,0,0,0,.337-1.091,1.953,1.953,0,0,1,0-.227v-.047c0-.063,0-.124,0-.181v-2.748c0-7.263,0-14.774-.009-22.16,0-.051,0-.111.009-.17v-.005a1.109,1.109,0,0,0-.544-1.215l-.129-.066-.145.019a2.551,2.551,0,0,0-1.217.591l-.017.013-.031.023c-.068.05-.138.1-.2.147-2.595,1.76-5.006,3.409-7.819,5.345-5.221,3.589-11.287,7.762-17.215,11.856a3.108,3.108,0,0,1-1.842.688h-.016c-1.894-.01-3.819-.01-5.682-.01-.846,0-1.72,0-2.578,0a2.423,2.423,0,0,1-1.434-.462c-.742-.519-1.512-1.049-2.5-1.72-.4-.269-.779-.531-1.138-.78q-1.96-1.344-3.914-2.689l-.611-.42-.033-.023c-6.474-4.447-12.278-8.429-17.252-11.837-.059-.039-.117-.083-.178-.131l-.015-.011-.041-.032A1.947,1.947,0,0,0-12523.169,2814.023Zm32.578,15.727c.8,0,1.594.01,2.361.028h.107a4.082,4.082,0,0,0,2.437-.821c6.5-4.5,12.533-8.636,18.434-12.652a2.585,2.585,0,0,0,1.261-2.365c-.025-1.859-.022-3.748-.02-5.575v-.594c0-.667.006-1.5.006-2.283v-1.915c0-.673,0-1.368,0-2.05,0-1.857.006-3.4-.016-4.98a1.684,1.684,0,0,0-.349-1.242,1.775,1.775,0,0,0-1.248-.349c-.7-.019-1.529-.038-2.352-.038-.7,0-1.341.014-1.972.044a3.045,3.045,0,0,0-2.3,1.239,3.03,3.03,0,0,0-.506,2.553c.019.072.038.145.058.216l.022.087c.013.046.024.092.036.137l.045.176c.122.474.261,1.011.377,1.538a1.662,1.662,0,0,1-1.371,2.264c-.86.252-1.759.458-2.524.626a1.854,1.854,0,0,0-1.541,1.475,27.023,27.023,0,0,1-.824,2.7c-.383,1.053-.911,1.2-1.424,1.2a3.158,3.158,0,0,1-.729-.1c-.812-.19-1.682-.4-2.531-.638a2.651,2.651,0,0,0-.729-.11,2.205,2.205,0,0,0-1.645.764,23.861,23.861,0,0,1-1.839,1.77,2.076,2.076,0,0,1-1.279.625,2.13,2.13,0,0,1-1.324-.663,18.123,18.123,0,0,1-1.591-1.544,2.5,2.5,0,0,0-1.89-.947,2.829,2.829,0,0,0-.931.17,12.427,12.427,0,0,1-1.424.371l-.531.121-.076.018a4.323,4.323,0,0,1-1,.145c-.668,0-1.135-.249-1.543-1.522l-.044-.132-.007-.021,0-.007a21.357,21.357,0,0,1-.6-2.1,1.942,1.942,0,0,0-1.635-1.6,25.1,25.1,0,0,1-2.669-.673,1.572,1.572,0,0,1-1.2-2.075c.138-.6.3-1.188.483-1.839l.07-.254.014-.049c.041-.151.084-.307.124-.46l.016-.05,0-.006a1.521,1.521,0,0,0-.112-1.424l-.022-.028-.01-.012c-.041-.052-.082-.1-.122-.154a3.588,3.588,0,0,0-2.893-1.824c-.064,0-.133,0-.191.006-.362.019-.741.028-1.194.028-.29,0-.591,0-.856-.006h-.021l-.279,0h-.032c-.19,0-.387-.005-.578-.005s-.345,0-.479.006h-.009c-.816.013-1.335.037-1.679.355s-.381.83-.384,1.616c-.006,2.239-.006,4.515-.006,6.716,0,3.4,0,6.908-.02,10.357a2.587,2.587,0,0,0,1.309,2.336c6.287,4.281,12.488,8.539,18.431,12.655a4.153,4.153,0,0,0,2.449.8h.1C-12492.179,2829.76-12491.37,2829.75-12490.591,2829.75Zm-31.391-26.281c-.727,0-1.267.027-1.6.371-.354.367-.34.886-.314,1.827.011.366.02.732.02,1.195,0,.328-.012.617-.02.85l0,.073,0,.115v.015a2.61,2.61,0,0,0,.18,1.469,3.73,3.73,0,0,0,1.247,1.072l0,0,.027.018.041.029c.23.158.491.336.8.554.118.081.232.17.354.264l.033.026.038.03a4.069,4.069,0,0,0,2.034,1.016l.408.053.088-.4c.019-.081.039-.159.063-.239a2.129,2.129,0,0,0,.1-.538l.006-.792v-.054c.012-1.667.025-3.555,0-5.366a1.726,1.726,0,0,0-.314-1.264,1.725,1.725,0,0,0-1.3-.318h-.509c-.3,0-.575,0-.8,0h-.1C-12521.683,2803.471-12521.84,2803.469-12521.981,2803.469Zm61.528,0c-.132,0-.264,0-.391,0-.826.012-1.281.019-1.6.317-.346.317-.35.8-.355,1.538-.022,1.943-.013,3.829,0,5.417,0,.05,0,.1,0,.151l0,.057a1.464,1.464,0,0,0,.443,1.314l.21.176.252-.1a23.731,23.731,0,0,0,3.958-2.5,1.7,1.7,0,0,0,.554-1.324c0-.314,0-.638,0-.956,0-.873-.007-1.8,0-2.7a1.351,1.351,0,0,0-.35-1.006,1.438,1.438,0,0,0-1.078-.375h-.209l-.155,0c-.2,0-.4,0-.645-.006S-12460.267,2803.469-12460.453,2803.469Zm-33.889,1.525a2.127,2.127,0,0,1,1.538.726c.313.306.584.568.83.8l.126.121.062.059c.091.086.184.175.274.264a1.261,1.261,0,0,0,.874.393,1.3,1.3,0,0,0,.9-.412c.108-.106.229-.221.38-.362l.124-.12.05-.048c.206-.2.419-.4.622-.612a2.231,2.231,0,0,1,1.641-.814,2.515,2.515,0,0,1,.717.116,10.222,10.222,0,0,0,1.055.251c.238.044.487.093.731.158a2.019,2.019,0,0,0,.49.069,1.241,1.241,0,0,0,1.245-1.113c.06-.242.13-.478.2-.727l0-.017.024-.08c.074-.238.17-.551.248-.868a1.743,1.743,0,0,1,1.519-1.446c.342-.066.68-.154,1.006-.239l.017,0,.068-.018c.222-.062.453-.121.686-.176a1.4,1.4,0,0,0,.956-.623,1.387,1.387,0,0,0,.054-1.135c-.057-.179-.105-.358-.157-.547l-.014-.05-.021-.079-.012-.045c-.087-.324-.177-.658-.3-.986a1.628,1.628,0,0,1,.465-1.871c.475-.478.981-.987,1.49-1.484a1.206,1.206,0,0,0,.422-.871,1.223,1.223,0,0,0-.422-.877l-.079-.08-.25-.249-.035-.035c-.182-.181-.37-.369-.551-.552s-.387-.384-.578-.575a1.587,1.587,0,0,1-.456-1.861,12.963,12.963,0,0,0,.418-1.427,1.857,1.857,0,0,0,.025-1.358c-.2-.369-.605-.518-1.154-.688-.51-.161-1.059-.327-1.625-.453a1.833,1.833,0,0,1-1.493-1.509l-.051-.195-.009-.033,0-.014a10.673,10.673,0,0,0-.568-1.76,1.126,1.126,0,0,0-1.069-.711,5.136,5.136,0,0,0-1.258.248c-.283.077-.59.16-.962.249a3.21,3.21,0,0,1-.736.094,2.113,2.113,0,0,1-1.543-.676,5.86,5.86,0,0,1-.4-.456l-.023-.029a2.456,2.456,0,0,0-1.7-1.16h-.072a2.411,2.411,0,0,0-1.789,1.148,5.181,5.181,0,0,1-.452.507,2.17,2.17,0,0,1-1.522.685,2.414,2.414,0,0,1-.745-.126c-.414-.131-.83-.221-1.232-.308l-.155-.034-.023-.005c-.127-.028-.255-.056-.381-.086l-.016,0a1.8,1.8,0,0,0-.358-.038,1.277,1.277,0,0,0-1.267,1.031l-.026.083-.039.125-.031.1c-.021.068-.043.136-.064.2l-.011.035c-.118.376-.24.764-.335,1.166a1.813,1.813,0,0,1-1.509,1.484c-.391.088-.771.2-1.141.311l-.084.025c-.214.063-.458.136-.69.2a1.152,1.152,0,0,0-.912,1.506c.029.1.058.212.085.333l.006.023c.12.477.257,1.017.438,1.527a1.623,1.623,0,0,1-.478,1.865l-.173.173-.084.086-.006.006-.2.2-.095.1c-.236.239-.53.536-.817.8a1.341,1.341,0,0,0-.513.994,1.378,1.378,0,0,0,.547,1.019c.173.156.337.321.511.495l.077.077.01.01,0,0c.178.181.362.368.559.546a1.791,1.791,0,0,1,.6,2.229,7.788,7.788,0,0,0-.355,1.2l-.014.058c-.042.178-.077.326-.118.479a1.206,1.206,0,0,0,.078.953,1.275,1.275,0,0,0,.814.563c.184.049.366.1.541.148.428.118.912.252,1.4.349a1.77,1.77,0,0,1,1.506,1.465c.085.33.186.645.289.965s.19.59.264.874a1.114,1.114,0,0,0,1.129.937,1.662,1.662,0,0,0,.378-.044c.163-.035.352-.071.591-.113l.017,0a11.6,11.6,0,0,0,1.366-.314A2.4,2.4,0,0,1-12494.342,2804.994Z" transform="translate(13292.551 -63.802)"/>
  </g>
</svg>
